<svg class="svg-icon" style="width: 1em; height: 1em;vertical-align: middle;fill: currentColor;overflow: hidden;" viewBox="0 0 1024 1024" version="1.1" xmlns="http://www.w3.org/2000/svg"><path d="M476.023 89.098a250.244 250.244 0 0 1 120.438 35.077A272.68 272.68 0 0 1 705.88 248.849c6.46 14.723 53.005 124.342 11.781 203.584-10.524 20.227-26.634 38.226-32.29 73.98-4.81 30.409 3.577 38.048-3.078 66.034-8.579 36.068-31.013 59.128-42.795 71.238a175.738 175.738 0 0 1-59.71 40.277l-11.968 4.653a166.624 166.624 0 0 1-69.959 10.136c-16.305-1.19-47.352-3.458-75.593-25.211-21.912-16.88-20.072-28.495-42.025-48.5-25.812-23.518-48.972-26.25-69.188-34.526-79.196-32.424-109.368-148.409-113.261-164.13-19.96-80.613 0.54-147.173 8.975-170.703a282.138 282.138 0 0 1 71.24-109.598 354.733 354.733 0 0 1 98.048-55.973 340.581 340.581 0 0 1 99.966-21.012z" fill="#EC9319" /><path d="M509.735 732.337q-6.415 0-12.83-0.469c-16.65-1.217-51.293-3.747-82.66-27.91-13.254-10.21-19.084-18.952-24.716-27.403-4.597-6.896-8.938-13.41-18.14-21.793-17.375-15.832-33.435-21.13-48.968-26.253-5.375-1.776-10.935-3.61-16.348-5.824-82.757-33.882-115.351-150.17-121.047-173.136-19.386-78.304-2.453-145.322 9.362-178.305a296.509 296.509 0 0 1 74.576-114.706l0.81-0.703A366.72 366.72 0 0 1 371.46 97.787a353.757 353.757 0 0 1 103.825-21.82l0.565-0.028 0.565 0.016a264.14 264.14 0 0 1 126.762 36.916 286.753 286.753 0 0 1 114.74 130.694c9.42 21.457 54.215 132.653 11.411 214.935-2.793 5.362-5.933 10.563-8.977 15.59-8.912 14.74-18.133 29.985-21.992 54.376-2.042 12.894-1.452 20.93-0.829 29.438 0.758 10.261 1.535 20.872-2.446 37.587-9.414 39.593-34.232 65.104-46.163 77.363a188.114 188.114 0 0 1-64.167 43.285l-12.168 4.733a180.283 180.283 0 0 1-62.851 11.465zM286.674 175.995a270.143 270.143 0 0 0-67.526 104.123c-10.813 30.186-26.314 91.516-8.591 163.106 5.156 20.798 34.482 126.052 105.481 155.118 4.56 1.868 9.452 3.48 14.628 5.188 16.445 5.43 36.916 12.181 58.433 31.788 11.584 10.557 17.286 19.107 22.314 26.648 5.06 7.59 9.06 13.588 18.885 21.155 25.107 19.344 53.347 21.409 68.52 22.516a153.043 153.043 0 0 0 64.444-9.355l11.764-4.576a161.757 161.757 0 0 0 55.043-37.191c11.076-11.385 31.689-32.572 39.433-65.112 3.03-12.759 2.491-20.182 1.798-29.576-0.675-9.173-1.432-19.572 1.078-35.47 4.669-29.484 15.72-47.756 25.467-63.88 2.96-4.886 5.753-9.503 8.148-14.116 37.276-71.645-3.589-172.696-12.155-192.226A260.29 260.29 0 0 0 589.743 135.48a237.857 237.857 0 0 0-113.546-33.217 327.314 327.314 0 0 0-95.542 20.169 340.363 340.363 0 0 0-93.981 53.563z" fill="" /><path d="M600.638 701.686l27.262 80.169c2.993-3.085 22.332-22.369 50.137-19.454 26.672 2.796 46.58 24.491 53.528 47.431a72.265 72.265 0 0 1-0.166 41.357c-0.703 2.275-8.15 25.262-28.428 37.133-23.608 13.82-56.407 7.77-80.653-16.022l-15.414 5.993c-4.291 34.887-25.797 62.049-52.193 67.67-22.672 4.827-42.19-7.676-44.094-8.937a66.492 66.492 0 0 1-24.97-31.585c-8.455-22.354-6.228-52.655 12.536-73.115 19.56-21.33 45.966-19.832 50.113-19.523l-27.261-80.169z" fill="#F0D179" /><path d="M544.05 960.223c-20.908 0-37.134-9.882-40.679-12.22a79.282 79.282 0 0 1-30.025-37.914c-9.35-24.712-8.29-61.091 15.147-86.651a73.24 73.24 0 0 1 41.815-22.68l-25.774-75.815 104.14-40.49 25.71 75.62c10.871-6.659 26.256-12.691 45.026-10.752 33.936 3.56 56.969 31.04 64.738 56.7a84.855 84.855 0 0 1-0.18 49.051c-1.56 5.015-10.511 30.642-34.353 44.599-27.155 15.883-62.427 10.852-90.09-12.178l-0.815 0.321c-7.083 36.495-30.99 64.566-61.265 71.01a64.033 64.033 0 0 1-13.395 1.4z m0.321-134.406c-7.23 0-23.887 1.644-36.498 15.395-15.79 17.222-16.214 42.955-9.928 59.576a53.533 53.533 0 0 0 19.932 25.274c0.655 0.43 16.58 10.772 34.09 7.038 21.126-4.498 38.354-27.695 41.886-56.417l0.963-7.802 30.649-11.915 6.061 5.946c19.547 19.171 46.195 24.96 64.797 14.06 16.066-9.404 22.263-28.86 22.52-29.682a59.163 59.163 0 0 0 0.134-33.644c-5.252-17.341-20.374-35.866-42.316-38.165-20.83-2.17-36.434 12.55-39.323 15.53l-14.968 15.433-29.763-87.528-55.068 21.412 29.608 87.078-19.835-1.486a38.428 38.428 0 0 0-2.941-0.103z" fill="" /><path d="M490.473 168.343a5.641 5.641 0 0 1-3.093 7.085 5.085 5.085 0 0 1-6.626-3.307 5.641 5.641 0 0 1 3.093-7.085 5.085 5.085 0 0 1 6.626 3.307zM497.18 220.426a5.641 5.641 0 0 1-3.092 7.085 5.085 5.085 0 0 1-6.626-3.307 5.641 5.641 0 0 1 3.092-7.085 5.085 5.085 0 0 1 6.626 3.307zM541.71 181.434a5.641 5.641 0 0 1-3.093 7.085 5.085 5.085 0 0 1-6.626-3.307 5.641 5.641 0 0 1 3.092-7.085 5.085 5.085 0 0 1 6.627 3.307zM552.823 236.25a5.641 5.641 0 0 1-3.092 7.085 5.085 5.085 0 0 1-6.626-3.306 5.641 5.641 0 0 1 3.092-7.085 5.085 5.085 0 0 1 6.626 3.306zM570.585 288.482a5.641 5.641 0 0 1-3.093 7.085 5.085 5.085 0 0 1-6.626-3.306 5.641 5.641 0 0 1 3.093-7.085 5.085 5.085 0 0 1 6.626 3.306zM603.025 228.498a5.641 5.641 0 0 1-3.093 7.085 5.085 5.085 0 0 1-6.626-3.306 5.641 5.641 0 0 1 3.093-7.085 5.085 5.085 0 0 1 6.626 3.306z" fill="" /></svg>