<svg class="svg-icon" style="width: 1em;height: 1em;vertical-align: middle;fill: currentColor;overflow: hidden;" viewBox="0 0 1024 1024" version="1.1" xmlns="http://www.w3.org/2000/svg"><path d="M754.2 713.4H269.8c-44.8 0-81-36.4-81-81h646.8c-0.2 44.8-36.6 81-81.4 81z" fill="#7DAC51" /><path d="M400.2 632.4H188.6c0 44.8 36.4 81 81 81h211.6c-44.8 0-81-36.2-81-81z" fill="#5B7C31" /><path d="M754.2 727.4H269.8c-52.4 0-95-42.6-95-95 0-7.8 6.2-14 14-14h646.8c7.8 0 14 6.2 14 14-0.2 52.4-42.8 95-95.4 95z m-550-81c6.4 30.2 33.4 53 65.6 53h484.6c32.2 0 59.2-22.8 65.6-53H204.2z" fill="#463218" /><path d="M485.8 632.4H258.8v-181.8c0-25 20.2-45.2 45.2-45.2h136.6c25 0 45.2 20.2 45.2 45.2v181.8z" fill="#FEFE71" /><path d="M400.2 405.2H304c-25 0-45.2 20.2-45.2 45.2v181.8h96.2v-181.8c0-25 20.2-45.2 45.2-45.2z" fill="#D6CD1E" /><path d="M485.8 646.4H258.8c-7.8 0-14-6.2-14-14v-181.8c0-32.6 26.6-59.2 59.2-59.2h136.6c32.6 0 59.2 26.6 59.2 59.2v181.8c0 7.6-6.2 14-14 14z m-213-28H472v-167.8c0-17.2-14-31.2-31.2-31.2H304c-17.2 0-31.2 14-31.2 31.2v167.8z" fill="#463218" /><path d="M258.8 495.8H486v60.6H258.8z" fill="#7DAC51" /><path d="M258.8 495.8h96.2v60.6h-96.2z" fill="#5B7C31" /><path d="M485.8 570.6H258.8c-7.8 0-14-6.2-14-14V496c0-7.8 6.2-14 14-14H486c7.8 0 14 6.2 14 14v60.6c-0.2 7.6-6.4 14-14.2 14z m-213-28H472V510h-199.2v32.6z" fill="#463218" /><path d="M587.6 310.6s-30 65.4-95.6 110.2c-95.2 65-136.2 211.4 37.2 211.4H646c173.2 0 132.2-146.4 37.2-211.4-65.6-44.8-95.6-110.2-95.6-110.2z" fill="#FE8E46" /><path d="M581.8 431.2c22.6-15.4 41-33.4 55.4-50.2-33.8-36-49.6-70.4-49.6-70.4s-30 65.4-95.6 110.2c-95.2 65-136.2 211.4 37.2 211.4h22.4c-91.4-34.4-49.8-146.4 30.2-201z" fill="#E56823" /><path d="M646 646.4h-117c-35.8 0-65.2-6-87.2-18-21-11.4-35.6-28.4-42-49.4-16.4-52.6 20-125.6 84.2-169.6 61.6-42.2 90.4-104 90.8-104.6 2.2-5 7.2-8.2 12.8-8.2 5.4 0 10.4 3.2 12.8 8.2 0.2 0.6 29.4 62.6 90.8 104.6 64.4 44 100.6 117 84.2 169.6-6.4 21-21 38-42 49.4-22.2 11.8-51.4 18-87.4 18z m-58.4-307c-15 24.2-43.6 62.8-87.6 93-52.8 36.2-85.8 98.2-73.4 138.2 6.8 21.8 30 47.6 102.6 47.6H646c72.6 0 95.8-26 102.6-47.6 12.4-40-20.4-102.2-73.4-138.2-44-30.2-72.6-68.8-87.6-93z" fill="#463218" /><path d="M539.8 476.4c-3.6 0-7.2-1.4-10-4.2-5.4-5.6-5.2-14.4 0.2-19.8 23.2-22.6 33.8-59.6 38.6-86.6 5.4-30.2 5-54.6 5-55-0.2-7.8 6-14.2 13.6-14.2 7.8-0.2 14.2 6 14.2 13.6 0 4.4 1.8 109.8-52 162.2-2.4 2.8-6 4-9.6 4z" fill="#463218" /><path d="M635.2 476.4c-3.6 0-7-1.4-9.8-4-53.6-52.4-52-157.8-52-162.2 0.2-7.8 6.6-13.8 14.2-13.6 7.8 0.2 13.8 6.6 13.6 14.2 0 1-1.4 97.8 43.4 141.6 5.6 5.4 5.6 14.2 0.2 19.8-2.2 2.8-5.8 4.2-9.6 4.2z" fill="#463218" /><path d="M636.2 570.6h-15.2v-28h15.2c19.8 0 36-16.2 36-36h28c0 35.2-28.6 64-64 64z" fill="#FFFFFF" /></svg>