<svg class="svg-icon" style="width: 1em; height: 1em;vertical-align: middle;fill: currentColor;overflow: hidden;" viewBox="0 0 1024 1024" version="1.1" xmlns="http://www.w3.org/2000/svg"><path d="M546.3 371.1c-11 0-20-9-20-20v-51c0-11 9-20 20-20s20 9 20 20v51c0 11-9 20-20 20z" fill="#444D68" /><path d="M546.3 343c-186.7 0-338 151.3-338 338h676c0-186.7-151.3-338-338-338z" fill="#F9CC12" /><path d="M904.3 701h-716v-20c0-48.3 9.5-95.2 28.1-139.4 18-42.6 43.8-80.9 76.7-113.8C326 395 364.3 369.2 407 351.1c44.1-18.7 91-28.1 139.4-28.1 48.3 0 95.2 9.5 139.4 28.1 42.6 18 80.9 43.8 113.8 76.7 32.9 32.9 58.7 71.2 76.7 113.8 18.7 44.1 28.1 91 28.1 139.4v20z m-675.4-40h634.8c-4.8-77.4-37.2-149.5-92.5-204.9-60.1-60-139.9-93.1-224.9-93.1-84.9 0-164.8 33.1-224.9 93.1-55.3 55.4-87.7 127.5-92.5 204.9z" fill="#444D68" /><path d="M940.3 701.1h-788c-11 0-20-9-20-20s9-20 20-20h788c11 0 20 9 20 20s-9 20-20 20z" fill="#444D68" /><path d="M343 522.3c-4.4 0-8.8-1.4-12.5-4.4-8.6-6.9-10.1-19.5-3.2-28.1 47.5-59.5 118.3-94.6 194.4-96.3 11-0.2 20.2 8.5 20.4 19.6 0.2 11-8.5 20.2-19.6 20.4-64.2 1.4-123.9 31-164 81.2-3.8 5.1-9.6 7.6-15.5 7.6z" fill="#FFFFFF" /><path d="M287.717142 562.771905a20.50082 20.50082 0 1 0 40.991804-0.898023 20.50082 20.50082 0 1 0-40.991804 0.898023Z" fill="#FFFFFF" /></svg>