<svg class="svg-icon" style="width: 1em; height: 1em;vertical-align: middle;fill: currentColor;overflow: hidden;" viewBox="0 0 1024 1024" version="1.1" xmlns="http://www.w3.org/2000/svg"><path d="M691.1 584.2a685.207 685.207 0 0 1-374.1 0c-12.5-3.5-24.9 5.5-24.9 18.5l38.8 140.4c0 8.6 5.8 15.7 13.8 18.7 16 6.1 31.9 10.9 47.7 15.2l26.2 148c0 12.3 10.7 22.3 24 22.3h129.7c13.3 0 24-10 24-22.3l26.4-149.2c13.6-4 27.2-8.6 40.8-14 8-3.1 11-10.6 13.8-18.7 16.5-47.8 23.6-79.2 38.8-140.4 3.1-12.6-12.5-22-25-18.5z" fill="#F2DA75" /><path d="M579 866.8l29.8-29.5c7.2-7 7.2-18.2 0-25.4-7-7-18.2-7-25.4 0l-29.8 29.5-22.3-22.1 43.2-43.2h-50.9l-17.8 17.8-17.8-17.8h-50.9l43.2 43.2-23.8 23.5-39.1-39.1c-7-7-18.5-7-25.4 0-7 7-7 18.5 0 25.4l39.1 39.1-26.1 26.2c-7 7.2-7 18.5 0 25.4 3.6 3.6 8.2 5.3 12.7 5.3 4.8 0 9.4-1.7 12.7-5.3l26.2-26.2 22.1 22.1-20.2 19.9c-7.2 7.2-7.2 18.5-0.2 25.7 3.6 3.4 8.2 5.3 13 5.3 4.6 0 9.1-1.9 12.7-5.3l20.2-20.2 17.8 17.8c3.6 3.4 8.2 5.3 12.7 5.3s9.1-1.9 12.7-5.3c7-7 7-18.5 0-25.4l-17.5-17.8 23.8-23.5 28.3 28.6c3.6 3.4 8.2 5.3 12.7 5.3 4.8 0 9.4-1.9 12.7-5.3 7.2-7 7.2-18.5 0-25.4L579 866.8z m-74.9 23.6L482 868.3l23.8-23.5 22.1 22.1-23.8 23.5zM354.4 642.7l21.2 78.9c0.4 1.3 1.2 2.2 2.4 2.8 9 4.2 54.4 22.9 106.1 24.1 2.7 0.1 5-2.2 5-4.9v-85.8c0-2.8-2.2-5-5-4.8-16.4 1.3-68.3 3.5-123.5-16.1-3.8-1.5-7.4 2-6.2 5.8zM655 642.7l-21.2 78.9c-0.4 1.3-1.2 2.2-2.4 2.8-9 4.2-54.4 22.9-106.1 24.1-2.7 0.1-5-2.2-5-4.9v-85.8c0-2.8 2.2-5 5-4.8 16.4 1.3 68.3 3.5 123.5-16.1 3.7-1.5 7.4 2 6.2 5.8z" fill="#E5C851" /><path d="M688.2 384.6l-51.5 21.5c32.4-19.8 52.8-48.9 51.5-94.5-0.5-16.2-12.8-47.8-22.7-66.1-8.5-15.7-30.3-1.7-34 0 59.2-48.1 23.1-120.4-18.1-147.8-42.5-28.4-64.3-35.2-62-19.2 2 14 31.7 15.4 18 42-12.9 25-53.7 39.5-110 62-100 40-82.6 138.5-82.6 138.5l1.3-0.4c-0.2 0.1-0.5 0.2-0.8 0.4-40 22-87.3 78.3-53.4 161.9L307.6 495l-6.4 79s58.4 39.8 244.5 29.4c216-12 186.9-105.5 186.9-105.5l-44.4-113.3z" fill="#9FDCF9" /><path d="M682.9 357.2c5-12.7 7.9-27.2 7.9-44 0-67.3-39.7-88.8-39.7-88.8 29.6-46-2-102.9-37.5-126.6-42.5-28.4-64.3-35.2-62-19.2 2 14 15.8 45.8 15.9 45.9 36.8 24.5 69.7 84.8 34.2 131.7 0 0 9.7 5.6 14.2 11.5 12.5 16.6 22.2 49.9 22.7 66.1 1.4 48.4-21.7 78.3-57.6 98.1 25.6-7.2 48.1-16.8 66.2-29.9 11.4 29.3 22.9 72 22.9 95 0 57.9-10.5 64.2-10.5 64.2s-99.5 16.4-157.1 16.4c-70.4 0-204.3-10.1-204.3-10.1l168.7 48.6 232-30 34-89-50-139.9z" fill="#61BEE2" /><path d="M478.8 450.3c-27.7 6.1-75.4 16.6-112.2 24.6-6.9-33.2-9.5-70.1 0.5-86.9 2 4.1 4.5 8 7.9 11.4 16.4 16.4 43 16.4 59.4 0s16.4-43 0-59.4c-0.3-0.3-0.6-0.5-0.9-0.7 60.7-24.7 174.5-58.8 233.1-87.3-1.7-3-22.3-13.6-27.7-10.6-49.9 27.6-156.4 45.8-222.3 64.9 0.6-19.8 5.4-47.6 21.3-67.4 16.4 16 42.7 16 59-0.3 11.9-11.9 15-29 9.7-43.8 45.9-21.1 64.4-45.5 76.1-68.1 13.7-26.6-33.1-61.5-31.2-48.1 2 14 31.7 15.4 18 42-10.7 20.8-125.1 63.5-147.1 81.7-46.5 38.5-48 95.9-46.5 119-0.5 0.3-1.3 0.6-1.8 0.8-15.5 8.5-40.9 42.8-53.7 95.3-16.7 68.4-18.7 157.6-18.7 157.6l33.4 8.3c-1.8-15.4-2.4-39.1 7.6-53.5 18.8-27 97.5-39 174-57.8 85.2-20.9 171-88 171-88s-140.9 51.3-208.9 66.3z" fill="#FFFFFF" /><path d="M695.8 374.2c8.8-17 13.7-37.1 13-61.5-0.6-20.4-11.9-57.4-26.3-76.4-3.3-4.4-7.4-7.4-11.8-9.7 8.4-16.2 10.6-32 10.3-44.6-1.2-42.8-29.7-80.6-57.4-99.1C574.2 50 556.7 48.2 544.2 56c-3.9 2.5-12.7 9.8-10.5 25.2 1.8 12.4 10.7 19.3 16.7 23.9 1.8 1.4 4.5 3.4 4.7 3.1 0 0-0.1 1.3-1.6 4.2-8.8 17-43.5 30.8-87.6 48.3l-13.2 5.3c-83.3 33.3-98.5 107.4-94.8 149.1-37.9 26.2-79.9 82.5-52.2 164.8-11.9 9.3-20.6 20.5-25.1 34-7.9 24-1.2 47.9 5 62.4-7.3 7-11.6 16.3-11.6 26.6l38.9 143.2c4.5 15.1 10.8 27.2 25.3 32.7 13.2 5 26.2 9.3 39.2 13.1 0.3 2.2 0.7 4.7 1.2 7.6 5.1 32.8 15.1 96.9 18.9 122.7 3.4 23.3 18.5 40.7 38.5 44.3 21.3 3.8 42.7 5.7 64.1 5.7 24.6 0 49.1-2.5 73.5-7.5 11.3-2.4 31.1-11.2 37.8-43.8 0.2-0.9 17-90.5 11.7-101.3-4.5-8.9-15.2-12.5-24.1-8.1-5.7 2.8-9.2 8.3-9.9 14.2-0.7 5.2-9.6 71.5-13 88-1.1 5.3-3.8 14.5-9.8 15.8-41 8.5-82.7 9-123.9 1.6-5.1-0.9-8.4-7.9-9.3-14-3.5-24.1-12.5-81.4-17.8-115.7 30.4 6.4 60.5 9.9 90.4 9.9 55.1 0 109.7-10.8 164.4-32.5 16.1-6.4 21.3-21.5 24.1-29.6 15-43.3 22.3-73.3 34.5-122.9l4.7-19c2.6-10.7-0.6-21.8-8.7-30 54.9-88.6 8.3-168.6-28.9-203.1z m-307.5-35.8c9.9-5.3 22.4-9.4 22.5-9.4 9.4-3.1 14.6-13.3 11.5-22.7-3.1-9.5-13.2-14.6-22.7-11.5-0.2 0.1-2.7 0.9-5.9 2.1 1.3-27.2 12.8-73.8 72.5-97.7l13.1-5.2c53-21.1 91.3-36.3 106.2-65.3 4.8-9.4 6.1-17.4 5.4-24.2 3.8 2.3 8 5 12.6 8.1 20 13.3 40.6 41.7 41.4 70.2 0.5 19.5-8.4 36.3-26.3 50.1-26.3 9.3-74.8 23.7-107.6 28-9.9 1.3-16.8 10.3-15.5 20.2s10.1 16.6 20.2 15.5c46.1-6 121.6-30.3 138-38.8 10 13.3 18.7 43.2 19 55.7 2.4 84-79.1 102.5-203.7 121.1-9.8 1.5-16.6 10.6-15.1 20.5 1.3 8.9 9 15.3 17.8 15.3 0.9 0 1.8-0.1 2.7-0.2 71.2-10.6 153.9-23.2 199.6-67.3 18.5 18.7 71.1 83.3 14.7 163.4-0.8 0.2-1.7 0.1-2.5 0.3-119.2 33.8-245.2 33.8-364.3 0-0.3-0.1-0.7-0.1-1-0.2-4-7.9-11.4-26-6-41.9 3.9-11.6 14.6-20.9 31.9-27.5 16.7-6.4 37.2-11.7 64.7-16.9 9.8-1.8 16.2-11.2 14.4-21-1.8-9.8-11.3-16.3-21-14.4-27.7 5.2-49 10.7-67 17.2-18.9-65.8 21.5-108.3 50.4-123.5z m305.6 279c-12 48.7-19.2 78-33.6 119.8-1.5 4.5-2.7 7.1-3.5 7.9-84.2 33.2-168 38.3-254.6 15.8-2.3-0.5-5.1-1.2-8.6-2.1-14.1-3.9-28.3-8.5-42.6-13.9-1.3-0.5-2.2-1.4-2.2-1.9l-38.4-141.4 1.6-0.1c125.6 35.6 258.4 35.6 383.9 0 0.5-0.1 1.1-0.1 1.8 0.1l-3.8 15.8z" fill="#662F0A" /><path d="M457.2 311.3c-8.5 0-16-6-17.7-14.6-1.9-9.8 4.5-19.2 14.3-21 9.8-2 20 4.4 21.9 14.1 1.9 9.8-3.7 19.1-13.5 20.9l-1.6 0.3c-1.1 0.2-2.2 0.3-3.4 0.3z" fill="#662F0A" /></svg>