<svg class="svg-icon" style="width: 1em;height: 1em;vertical-align: middle;fill: currentColor;overflow: hidden;" viewBox="0 0 1024 1024" version="1.1" xmlns="http://www.w3.org/2000/svg"><path d="M547.6 531.2l139.2-315.8h66l-160.4 315.8z" fill="#E56823" /><path d="M421 511.6m-128.2 0a128.2 128.2 0 1 0 256.4 0 128.2 128.2 0 1 0-256.4 0Z" fill="#FEFE71" /><path d="M421 653.8c-78.4 0-142.2-63.8-142.2-142.2s63.8-142.2 142.2-142.2 142.2 63.8 142.2 142.2-63.8 142.2-142.2 142.2z m0-256.4c-63 0-114.2 51.2-114.2 114.2s51.2 114.2 114.2 114.2 114.2-51.2 114.2-114.2-51.2-114.2-114.2-114.2z" fill="#463218" /><path d="M421 511.6m-83.8 0a83.8 83.8 0 1 0 167.6 0 83.8 83.8 0 1 0-167.6 0Z" fill="#D6CD1E" /><path d="M421 609.4c-53.8 0-97.8-43.8-97.8-97.8s43.8-97.8 97.8-97.8 97.8 43.8 97.8 97.8-44 97.8-97.8 97.8z m0-167.6c-38.4 0-69.8 31.2-69.8 69.8s31.2 69.8 69.8 69.8 69.8-31.2 69.8-69.8-31.4-69.8-69.8-69.8z" fill="#463218" /><path d="M421 511.6m-35.4 0a35.4 35.4 0 1 0 70.8 0 35.4 35.4 0 1 0-70.8 0Z" fill="#FEFE71" /><path d="M421 561c-27.2 0-49.4-22.2-49.4-49.4s22.2-49.4 49.4-49.4 49.4 22.2 49.4 49.4-22.2 49.4-49.4 49.4z m0-71c-11.8 0-21.4 9.6-21.4 21.4s9.6 21.4 21.4 21.4 21.4-9.6 21.4-21.4-9.6-21.4-21.4-21.4z" fill="#463218" /><path d="M478.2 775.8c-133.4 0-241.6-108.2-241.6-241.6v-2.8H720v2.8c-0.2 133.4-108.4 241.6-241.8 241.6z" fill="#FE8E46" /><path d="M385.4 534.2v-2.8h-149v2.8c0 133.4 108.2 241.6 241.6 241.6 26 0 51-4.2 74.4-11.8-96.8-31.4-167-122.4-167-229.8z" fill="#E56823" /><path d="M478.2 789.8c-141 0-255.6-114.6-255.6-255.6v-2.8c0-7.8 6.2-14 14-14H720c7.8 0 14 6.2 14 14v2.8c-0.2 140.8-114.8 255.6-255.8 255.6zM250.8 545.2c5.8 120.4 105.6 216.6 227.4 216.6s221.6-96.2 227.4-216.6H250.8z" fill="#463218" /><path d="M377.8 754h193v54.6h-193z" fill="#7DAC51" /><path d="M570.8 822.6h-193c-7.8 0-14-6.2-14-14V754c0-7.8 6.2-14 14-14h193c7.8 0 14 6.2 14 14v54.6c0 7.8-6.2 14-14 14z m-179-28h165V768h-165v26.6z" fill="#463218" /><path d="M699.6 630.8c6.8-15.6 12-32 15.4-49H241.2c3.4 17 8.6 33.4 15.4 49h443z" fill="#FEFE71" /><path d="M405.6 630.8c-6.8-15.6-12-32-15.4-49h-149c3 15 7.4 29.4 13 43.2 0.8 2 1.6 4 2.4 5.8h149z" fill="#D6CD1E" /><path d="M699.6 644.8H256.6c-5.6 0-10.6-3.2-12.8-8.4-7.2-16.6-12.8-34-16.4-51.8-0.8-4.2 0.2-8.4 2.8-11.6 2.6-3.2 6.6-5.2 10.8-5.2h473.8c4.2 0 8.2 1.8 10.8 5.2 2.6 3.2 3.8 7.6 2.8 11.6-3.6 17.8-9 35.2-16.4 51.8-1.8 5.2-6.8 8.4-12.4 8.4z m-433.6-28h424.4c2.6-6.8 5-13.8 7-21H259c2 7.2 4.4 14.2 7 21zM645.4 506.4c-5.6 0-11.4-0.8-17-2.4-18.4-5.4-32.6-18.8-39.2-36.8l-12.8-34.6c-3.2-8.8-10.2-15.8-19-19-8.8-3.2-18.6-2.4-26.8 2.4l-19 11c-6.8 3.8-15.2 1.6-19.2-5.2-3.8-6.8-1.6-15.2 5.2-19.2l19-11c15.4-8.8 33.6-10.4 50.2-4.4s29.6 19 35.8 35.6l12.8 34.6c3.6 9.6 11.2 16.8 21 19.6 9.8 2.8 20 1 28.2-5.2 14.8-11.2 34.6-15 52.4-9.8l54.8 15.6c7.4 2.2 11.8 9.8 9.6 17.2-2.2 7.4-9.8 11.8-17.2 9.6l-54.8-15.6c-9.6-2.8-20-0.8-28 5.2-10.6 8.2-23.2 12.4-36 12.4z" fill="#463218" /><path d="M592.4 545.2h-44.8c-4.8 0-9.2-2.4-11.8-6.4-2.6-4-3-9-1-13.2l139.2-316c2.2-5 7.2-8.4 12.8-8.4h66.2c4.8 0 9.4 2.6 12 6.6 2.6 4.2 2.8 9.4 0.6 13.6l-160.6 316c-2.6 4.8-7.4 7.8-12.6 7.8z m-23.2-28h14.6l146.2-288h-34.2l-126.6 288z" fill="#463218" /><path d="M547.6 411.6c-2.8 0-5.4-0.8-8-2.4-6.4-4.4-8-13-3.6-19.4 24.2-35.2 64.2-56.4 107-56.4h51.8c32.4 0 61.4-18 75.8-47.2l4.2-8.4c3.4-7 11.8-9.8 18.8-6.4 7 3.4 9.8 11.8 6.4 18.8l-4.2 8.4c-19.2 38.6-57.8 62.6-101 62.6h-51.8c-33.6 0-65 16.6-84 44.2-2.6 4-7 6.2-11.4 6.2z" fill="#463218" /><path d="M499.4 654h63.6v28h-63.6zM595.6 654h25.4v28h-25.4z" fill="#FFFFFF" /></svg>