<svg class="svg-icon" style="width: 1em;height: 1em;vertical-align: middle;fill: currentColor;overflow: hidden;" viewBox="0 0 1024 1024" version="1.1" xmlns="http://www.w3.org/2000/svg"><path d="M390.8 745.2h242.4V786H390.8z" fill="#5B7C31" /><path d="M335.4 628.4m-74.2 0a74.2 74.2 0 1 0 148.4 0 74.2 74.2 0 1 0-148.4 0Z" fill="#FE8E46" /><path d="M335.4 716.6c-48.6 0-88.2-39.6-88.2-88.2s39.6-88.2 88.2-88.2 88.2 39.6 88.2 88.2-39.6 88.2-88.2 88.2z m0-148.4c-33.2 0-60.2 27-60.2 60.2s27 60.2 60.2 60.2 60.2-27 60.2-60.2-27-60.2-60.2-60.2z" fill="#463218" /><path d="M645.6 660.8m-57.2 0a57.2 57.2 0 1 0 114.4 0 57.2 57.2 0 1 0-114.4 0Z" fill="#E56823" /><path d="M645.6 732c-39.2 0-71.2-32-71.2-71.2s32-71.2 71.2-71.2 71.2 32 71.2 71.2-32 71.2-71.2 71.2z m0-114.4c-23.8 0-43.2 19.4-43.2 43.2s19.4 43.2 43.2 43.2 43.2-19.4 43.2-43.2-19.4-43.2-43.2-43.2z" fill="#463218" /><path d="M625.2 367l194-99.2v73.2l-194 68.6z" fill="#7DAC51" /><path d="M271.8 396.4v-36l353.4 73.4v60.8zM625.2 433.8l194 45.2v65.4l-194-49.8z" fill="#5B7C31" /><path d="M819.2 558.4c-1.2 0-2.4-0.2-3.4-0.4l-194-49.8c-6.2-1.6-10.6-7.2-10.6-13.6V434c0-4.2 2-8.4 5.2-11 3.4-2.6 7.8-3.6 11.8-2.6l194 45c6.4 1.4 10.8 7.2 10.8 13.6v65.4c0 4.4-2 8.4-5.4 11-2.4 1.8-5.4 3-8.4 3z m-180-74.8l166 42.6V490l-166-38.6v32.2z" fill="#463218" /><path d="M625.2 508.6c-1.2 0-2.6-0.2-3.8-0.6L268 409.8c-6-1.6-10.2-7.2-10.2-13.4v-36c0-4.2 1.8-8.2 5.2-10.8 3.2-2.6 7.6-3.8 11.6-2.8L628 420.2c6.4 1.4 11.2 7 11.2 13.8v60.6c0 4.4-2 8.4-5.6 11.2-2.4 1.8-5.4 2.8-8.4 2.8z m-339.4-122.8L611.2 476v-30.8l-325.4-67.6v8.2z" fill="#463218" /><path d="M366.4 486.8v174.8h43.2v-194.6z" fill="#FEFE71" /><path d="M409.6 467v194.6h43.2V447z" fill="#D6CD1E" /><path d="M452.8 447v214.6h43V427z" fill="#FEFE71" /><path d="M495.8 427v234.6h43.2V407z" fill="#D6CD1E" /><path d="M539 407v254.6H582V387z" fill="#FEFE71" /><path d="M582 661.6h43.2V367l-43.2 20z" fill="#D6CD1E" /><path d="M177.8 661.6c59 53.8 136.2 83.6 216 83.6h236c80 0 157-29.8 216-83.6h-668z" fill="#FEFE71" /><path d="M355.8 661.6h-178c59 53.8 136.2 83.6 216 83.6h177.8c-79.6 0-156.8-29.8-215.8-83.6z" fill="#D6CD1E" /><path d="M630 759.2H394c-83.6 0-163.6-31-225.6-87.2-4.2-3.8-5.8-10-3.6-15.4 2-5.4 7.2-9 13-9H846c5.8 0 11 3.6 13 9s0.6 11.6-3.6 15.4c-61.6 56.2-141.8 87.2-225.4 87.2z m-412.4-83.6c51.4 36.2 112.8 55.6 176.2 55.6h236c63.6 0 124.8-19.6 176.2-55.6H217.6z" fill="#463218" /><path d="M633.2 800H390.8c-7.8 0-14-6.2-14-14v-40.8c0-7.8 6.2-14 14-14h242.4c7.8 0 14 6.2 14 14V786c0 7.8-6.2 14-14 14z m-228.4-28h214.4v-12.8H404.8v12.8z" fill="#463218" /><path d="M409.6 675.6h-43.2c-7.8 0-14-6.2-14-14v-174.8c0-5.4 3.2-10.4 8.2-12.8l43.2-20c4.4-2 9.4-1.6 13.4 1s6.4 7 6.4 11.8v194.6c0 8-6.2 14.2-14 14.2z m-29.2-28h15.2v-158.8l-15.2 7v151.8z" fill="#463218" /><path d="M452.8 675.6h-43.2c-7.8 0-14-6.2-14-14v-194.6c0-5.4 3.2-10.4 8.2-12.8l43.2-20c4.4-2 9.4-1.6 13.4 1s6.4 7 6.4 11.8v214.6c0 7.8-6.4 14-14 14z m-29.2-28h15.2v-178.8l-15.2 7v171.8z" fill="#463218" /><path d="M495.8 675.6h-43.2c-7.8 0-14-6.2-14-14V447c0-5.4 3.2-10.4 8.2-12.8l43.2-20c4.4-2 9.4-1.6 13.4 1s6.4 7 6.4 11.8v234.6c0 7.8-6.2 14-14 14z m-29-28h15.2v-198.8l-15.2 7v191.8z" fill="#463218" /><path d="M539 675.6h-43.2c-7.8 0-14-6.2-14-14V427c0-5.4 3.2-10.4 8.2-12.8l43.2-20c4.4-2 9.4-1.6 13.4 1s6.4 7 6.4 11.8v254.6c0 7.8-6.4 14-14 14z m-29.2-28h15.2V429l-15.2 7v211.6z" fill="#463218" /><path d="M582 675.6h-43.2c-7.8 0-14-6.2-14-14V407c0-5.4 3.2-10.4 8.2-12.8l43.2-20c4.4-2 9.4-1.6 13.4 1s6.4 7 6.4 11.8v274.6c0 7.8-6.2 14-14 14z m-29-28h15.2V409l-15.2 7v231.6z" fill="#463218" /><path d="M625.2 675.6H582c-7.8 0-14-6.2-14-14V387c0-5.4 3.2-10.4 8.2-12.8l43.2-20c4.4-2 9.4-1.6 13.4 1s6.4 7 6.4 11.8v294.6c0 7.8-6.2 14-14 14z m-29.2-28h15.2V389L596 396v251.6z" fill="#463218" /><path d="M625.2 423.6c-2.8 0-5.6-0.8-8-2.6-3.8-2.6-6-6.8-6-11.4v-42.6c0-5.2 3-10 7.6-12.4l194-99.2c4.4-2.2 9.6-2 13.6 0.6 4.2 2.6 6.6 7 6.6 12v73.2c0 6-3.8 11.2-9.4 13.2l-194 68.6c-1.2 0.4-2.8 0.6-4.4 0.6z m14-48v14.2l166-58.6v-40.4l-166 84.8z" fill="#463218" /><path d="M353 688.6h142.8v28h-142.8z" fill="#FFFFFF" /></svg>